<?xml version="1.0" standalone="no"?>
<!DOCTYPE svg PUBLIC "-//W3C//DTD SVG 20010904//EN"
 "http://www.w3.org/TR/2001/REC-SVG-20010904/DTD/svg10.dtd">
<svg version="1.0" xmlns="http://www.w3.org/2000/svg"
 width="270.000000pt" height="187.000000pt" viewBox="0 0 270.000000 187.000000"
 preserveAspectRatio="xMidYMid meet">
<metadata>
Created by potrace 1.10, written by Peter Selinger 2001-2011
</metadata>
<g transform="translate(0.000000,187.000000) scale(0.100000,-0.100000)"
fill="#000000" stroke="none">
<path d="M930 1709 c-19 -6 -75 -11 -125 -13 -63 -2 -107 -10 -147 -25 -73
-28 -168 -98 -197 -145 -12 -19 -37 -45 -54 -57 -66 -45 -107 -93 -123 -143
-10 -28 -25 -64 -36 -81 -11 -19 -18 -49 -18 -83 0 -93 40 -152 115 -171 22
-5 54 -15 71 -22 27 -11 37 -10 76 9 24 12 47 22 50 22 3 0 8 -22 12 -48 8
-65 25 -86 62 -80 28 4 30 2 26 -24 -5 -32 9 -53 51 -74 34 -18 46 -11 29 16
-21 35 -14 70 22 106 36 36 82 46 92 19 14 -36 -77 -234 -129 -283 -58 -55
-108 10 -52 68 16 17 22 30 16 34 -13 8 -72 -16 -87 -35 -27 -35 -25 -51 15
-90 31 -31 46 -39 75 -39 21 0 46 5 56 10 28 15 69 90 95 172 12 38 27 73 34
77 6 4 9 16 6 27 -6 16 -5 17 4 3 8 -12 7 -25 -4 -47 -10 -19 -16 -65 -18
-127 -2 -83 1 -99 16 -109 28 -18 46 2 111 129 69 134 91 171 109 178 7 3 13
-3 13 -13 0 -9 -7 -17 -15 -16 -18 1 -57 -89 -74 -170 -10 -49 -9 -56 9 -81
27 -36 76 -42 113 -15 26 19 27 19 50 1 25 -20 95 -26 106 -9 3 6 20 10 36 10
17 0 39 4 49 10 14 7 19 5 23 -10 3 -14 14 -20 31 -20 23 0 26 4 26 38 0 46
38 126 63 130 22 4 22 -20 2 -78 -22 -61 -19 -77 14 -88 28 -10 29 -9 35 31
12 76 62 154 84 132 3 -3 -3 -29 -13 -59 -17 -51 -18 -56 -2 -80 26 -40 83
-36 125 7 29 30 41 57 26 57 -3 0 -19 -13 -34 -30 -53 -57 -74 -27 -43 59 24
67 17 91 -26 91 -16 0 -39 -9 -53 -19 -24 -19 -24 -19 -36 0 -15 23 -43 24
-81 4 -26 -13 -30 -13 -41 0 -23 28 -37 15 -59 -52 -25 -76 -45 -103 -74 -103
-18 0 -19 1 -3 26 26 38 24 104 -4 126 -60 48 -149 4 -176 -88 -18 -65 -52
-90 -81 -61 -15 14 -15 23 -3 74 17 77 67 206 91 237 25 31 24 36 -5 36 -73 0
-109 -39 -206 -222 l-48 -90 6 130 c5 130 5 130 -21 156 -37 37 -102 36 -181
-4 -65 -32 -86 -31 -46 2 83 67 310 152 440 164 l67 7 -28 105 c-25 94 -27
107 -13 115 71 40 112 116 85 159 -7 11 -9 28 -6 38 11 34 -15 103 -54 141
-53 54 -133 71 -221 48z m171 -56 c45 -26 72 -85 64 -139 -4 -29 -2 -44 4 -44
15 0 14 -26 -4 -60 -17 -32 -51 -54 -104 -64 l-34 -6 6 82 c3 46 9 93 13 106
3 12 2 22 -3 22 -11 0 -30 -76 -39 -154 l-6 -53 -63 -15 -63 -15 -4 46 c-3 25
-12 62 -21 81 -16 35 -16 34 -10 -45 4 -62 2 -83 -8 -92 -22 -17 -143 -63
-168 -63 -62 0 -151 80 -173 155 -11 38 -12 39 -16 12 -7 -59 87 -187 138
-187 30 0 24 -13 -19 -48 -70 -56 -137 -67 -201 -33 -40 21 -80 83 -80 124 0
43 35 101 86 144 25 21 56 48 68 61 81 88 126 126 185 154 58 29 76 33 147 33
74 0 85 -3 132 -32 59 -36 67 -31 21 13 l-30 29 23 7 c37 11 125 1 159 -19z
m-23 -356 c10 -12 72 -165 72 -178 0 -3 -26 -7 -57 -8 -149 -6 -321 -64 -450
-152 -23 -16 -44 -29 -46 -29 -2 0 -8 27 -11 61 -8 72 -2 82 83 134 92 55 261
115 363 128 56 7 40 20 -17 13 -141 -15 -341 -94 -419 -166 -43 -40 -66 -45
-66 -15 0 34 162 134 295 182 99 36 235 52 253 30z m-760 -107 c31 -54 80 -89
136 -96 39 -6 49 -12 57 -32 11 -28 3 -37 -39 -48 -34 -9 -143 18 -165 41 -34
36 -46 95 -31 153 9 31 16 28 42 -18z m978 -445 c4 -8 3 -35 0 -60 -5 -31 -13
-46 -27 -50 -10 -4 -19 -15 -19 -26 0 -22 -11 -24 -28 -7 -22 22 -6 99 28 136
24 26 38 28 46 7z"/>
<path d="M1811 927 c-15 -39 -17 -90 -4 -94 11 -4 63 84 63 107 0 5 -11 10
-25 10 -17 0 -28 -7 -34 -23z"/>
<path d="M2186 923 c-4 -14 -16 -23 -29 -23 -20 -1 -20 -1 -4 -11 13 -7 16
-17 11 -32 -6 -19 -5 -20 10 -8 13 11 19 11 33 0 15 -12 16 -12 10 5 -5 12 -1
23 10 32 17 12 17 13 -4 14 -15 0 -23 7 -25 23 l-4 22 -8 -22z"/>
<path d="M2247 828 c-5 -21 -12 -25 -29 -21 -22 4 -22 4 -5 -11 14 -10 17 -21
11 -38 -6 -21 -5 -21 10 -9 13 11 20 11 28 3 19 -19 30 -14 18 7 -8 16 -6 22
7 30 16 9 16 10 -4 11 -16 0 -23 7 -25 28 l-3 27 -8 -27z"/>
<path d="M2118 778 c-2 -19 -8 -22 -33 -20 l-30 3 24 -19 c20 -16 22 -22 12
-40 -13 -25 0 -30 19 -7 12 14 16 13 37 -6 25 -24 29 -20 13 11 -8 16 -6 22
10 32 27 17 25 26 -5 20 -14 -2 -22 -8 -20 -12 3 -5 1 -11 -3 -14 -5 -3 -7 12
-5 34 5 42 -13 58 -19 18z"/>
<path d="M1943 768 c-11 -13 -28 -38 -39 -55 -10 -18 -23 -33 -30 -33 -6 0
-19 -9 -28 -19 -14 -15 -15 -24 -7 -39 18 -35 62 -62 98 -62 61 0 153 52 153
87 0 18 -4 17 -40 -17 -18 -16 -35 -30 -39 -30 -6 0 -8 21 -12 143 -1 54 -21
63 -56 25z m3 -103 c8 -55 1 -75 -25 -75 -30 0 -38 43 -15 86 10 19 22 34 26
34 4 0 10 -20 14 -45z"/>
<path d="M2197 652 c-17 -30 -20 -32 -55 -26 l-37 7 29 -25 c28 -24 28 -25 12
-56 -19 -37 -16 -39 21 -15 25 17 26 16 50 -11 30 -35 34 -31 19 14 -7 22 -17
35 -28 35 -27 0 -41 20 -25 34 12 9 18 6 31 -13 14 -22 19 -24 46 -15 40 15
38 29 -4 29 -33 0 -35 2 -38 38 l-3 37 -18 -33z"/>
<path d="M1257 463 c-22 -56 -40 -154 -30 -164 5 -5 19 -10 31 -11 21 -3 24 2
27 38 5 69 58 154 81 131 4 -4 0 -31 -9 -61 -21 -66 -22 -102 -1 -110 33 -13
44 -6 44 27 0 61 63 167 86 144 3 -3 -3 -28 -12 -55 -24 -66 -13 -102 34 -116
27 -7 38 -5 60 11 27 20 28 20 51 2 31 -25 44 -24 79 6 25 21 31 22 36 10 3
-8 17 -20 30 -26 20 -10 31 -8 60 9 34 20 35 20 52 1 22 -25 34 -24 78 6 20
13 36 20 36 16 0 -25 -16 -43 -49 -57 -48 -20 -81 -53 -81 -80 0 -25 34 -54
61 -54 30 0 77 49 96 100 13 33 30 56 54 73 34 23 36 23 47 6 20 -32 58 -34
101 -6 38 25 39 26 56 7 25 -28 75 -35 116 -16 45 20 79 50 79 71 0 13 -8 10
-35 -14 -68 -59 -135 -34 -120 46 8 43 51 91 67 75 8 -8 7 -16 -2 -27 -19 -22
3 -44 28 -29 39 25 14 84 -37 84 -55 0 -121 -65 -121 -118 0 -25 -45 -66 -64
-59 -20 8 -20 22 1 87 18 57 11 85 -23 85 -14 0 -23 -16 -40 -69 -14 -46 -31
-78 -49 -93 -15 -13 -29 -22 -31 -20 -2 2 5 35 16 73 11 38 20 70 20 70 0 9
-87 44 -106 44 -37 0 -99 -65 -113 -118 -11 -38 -34 -62 -60 -62 -16 0 -13 45
4 87 20 48 20 48 -25 72 -51 27 -80 27 -114 0 -27 -21 -66 -87 -66 -112 0 -18
-32 -47 -53 -47 -22 0 -22 28 0 96 13 44 14 56 3 68 -17 22 -52 20 -83 -4 -14
-11 -27 -20 -30 -20 -3 0 -7 9 -10 20 -6 24 -36 26 -78 4 -28 -14 -32 -14 -48
0 -24 22 -27 21 -44 -21z m493 -18 c0 -30 -31 -95 -55 -115 -28 -23 -41 2 -26
52 22 73 81 119 81 63z m260 -2 c0 -48 -64 -136 -84 -116 -11 11 -6 54 10 86
24 46 34 57 55 57 14 0 19 -7 19 -27z m-52 -220 c-18 -43 -46 -69 -59 -56 -8
8 -2 21 21 47 38 43 54 47 38 9z"/>
</g>
</svg>
