<svg xmlns="http://www.w3.org/2000/svg" version="1.0" preserveAspectRatio="xMidYMid meet" viewBox="23 10.08 224.98 164.56">
<metadata>
Created by potrace 1.10, written by Peter Selinger 2001-2011
</metadata>
<g transform="translate(0.000000,187.000000) scale(0.100000,-0.100000)" fill="#000000" stroke="none">
<path d="M938 1763 c7 -3 16 -2 19 1 4 3 -2 6 -13 5 -11 0 -14 -3 -6 -6z"/>
<path d="M930 1709 c-19 -6 -75 -11 -125 -13 -63 -2 -107 -10 -147 -25 -73 -28 -168 -98 -197 -145 -12 -19 -37 -45 -54 -57 -66 -45 -107 -93 -123 -143 -10 -28 -25 -64 -36 -81 -11 -19 -18 -49 -18 -83 0 -93 40 -152 115 -171 22 -5 54 -15 71 -22 27 -11 37 -10 76 9 24 12 47 22 50 22 3 0 8 -17 11 -37 3 -21 10 -51 16 -67 10 -24 16 -28 44 -24 31 3 33 2 29 -24 -5 -32 9 -53 51 -74 34 -18 46 -11 29 16 -21 35 -14 70 22 106 36 36 82 46 92 19 13 -34 -70 -220 -124 -278 -20 -21 -34 -27 -60 -25 -35 2 -63 29 -61 58 0 10 2 11 6 2 2 -6 8 -10 13 -7 4 3 6 -3 3 -14 -3 -10 0 -22 6 -25 7 -5 11 3 11 20 0 17 11 39 27 56 26 28 22 34 -17 28 -26 -4 -67 -39 -73 -62 -9 -34 62 -98 109 -98 19 0 44 5 54 10 28 15 69 90 95 173 13 39 28 73 35 75 9 3 9 -1 1 -16 -6 -11 -12 -66 -13 -122 -3 -88 -1 -104 15 -114 28 -18 46 2 114 134 58 114 98 178 78 125 -59 -155 -65 -199 -35 -237 26 -34 75 -38 111 -9 24 19 25 19 48 0 25 -20 95 -26 106 -9 3 6 21 10 38 10 28 0 108 39 82 40 -5 0 -3 6 5 13 8 7 16 23 18 37 1 13 7 27 14 31 6 4 8 11 4 17 -9 15 7 22 24 11 11 -6 12 -9 2 -9 -7 0 -10 -4 -7 -10 3 -5 1 -10 -4 -10 -6 0 -10 -3 -9 -7 5 -20 -25 -83 -43 -88 -29 -10 -19 -39 14 -43 25 -3 27 -1 27 36 0 45 39 126 63 130 21 4 22 -21 2 -78 -22 -61 -19 -77 14 -88 28 -10 29 -9 35 31 12 74 62 154 83 133 3 -2 -3 -29 -13 -59 -16 -52 -16 -57 0 -81 30 -47 114 -26 147 36 18 33 1 33 -30 -1 -54 -57 -73 -32 -43 57 13 40 17 64 10 75 -12 23 -60 21 -90 -2 -24 -19 -24 -19 -36 0 -14 22 -47 24 -82 4 -22 -12 -27 -11 -43 3 -18 16 -20 15 -33 -3 -8 -11 -21 -42 -29 -69 -17 -56 -40 -86 -67 -86 -17 0 -17 2 -3 24 25 38 22 106 -5 128 -30 25 -80 23 -121 -5 -25 -17 -39 -37 -54 -81 -23 -67 -54 -91 -81 -64 -14 13 -14 24 -4 74 16 75 66 206 91 238 25 31 24 36 -5 36 -73 0 -109 -39 -206 -222 l-48 -90 6 130 c5 130 5 130 -21 156 -36 36 -105 36 -171 1 -26 -14 -54 -25 -62 -25 -8 0 -17 -7 -20 -15 -5 -11 -10 -13 -19 -5 -6 5 -16 6 -20 2 -5 -4 -5 -1 -1 6 4 6 2 12 -3 12 -6 0 -11 5 -11 11 0 7 9 5 24 -4 22 -15 25 -15 42 4 26 29 227 126 309 149 39 11 102 23 141 27 l71 6 -28 106 c-26 96 -27 106 -12 115 9 5 32 23 51 40 28 26 34 39 34 71 -1 83 -10 153 -26 182 -43 84 -147 121 -256 92z m174 -58 c47 -30 73 -91 59 -142 -8 -31 -8 -39 3 -39 34 0 -1 -82 -44 -103 -15 -8 -42 -17 -61 -21 l-34 -6 6 82 c3 46 9 93 13 106 3 12 2 22 -3 22 -10 0 -31 -84 -40 -158 l-5 -49 -57 -13 c-31 -7 -62 -17 -69 -23 -7 -5 -15 -7 -19 -3 -3 3 -1 6 5 6 18 0 13 69 -8 120 l-19 45 6 -80 c4 -62 2 -83 -8 -92 -23 -18 -144 -63 -170 -63 -59 1 -147 79 -174 156 -13 36 -14 37 -15 11 -1 -63 92 -187 140 -187 11 0 20 -4 20 -9 0 -13 -72 -68 -104 -81 -66 -25 -148 -3 -186 49 -51 73 -31 156 56 228 25 21 56 48 68 61 80 88 126 126 184 154 59 29 76 33 148 33 73 0 85 -3 132 -32 59 -36 67 -31 21 13 l-30 29 23 7 c39 12 126 1 162 -21z m-469 -11 c-3 -5 -12 -10 -18 -10 -7 0 -6 4 3 10 19 12 23 12 15 0z m-115 -83 c0 -2 -10 -12 -22 -23 l-23 -19 19 23 c18 21 26 27 26 19z m674 -73 c3 -8 2 -12 -4 -9 -6 3 -10 10 -10 16 0 14 7 11 14 -7z m-94 -154 c0 -5 -5 -10 -11 -10 -5 0 -7 5 -4 10 3 6 8 10 11 10 2 0 4 -4 4 -10z m-15 -44 c15 -22 65 -150 65 -166 0 -3 -21 -7 -47 -8 -147 -7 -299 -55 -432 -137 -40 -25 -74 -45 -76 -45 -1 0 -6 28 -9 61 -7 56 -5 64 16 86 53 57 238 138 384 168 43 9 80 18 83 21 12 12 -67 1 -160 -22 -128 -32 -248 -87 -312 -142 -27 -23 -53 -40 -58 -37 -63 39 224 204 409 235 91 15 120 12 137 -14z m-798 -42 c-3 -3 -1 -11 4 -18 5 -6 23 -30 40 -54 32 -46 93 -81 142 -82 17 0 30 -6 33 -17 3 -10 10 -26 15 -35 11 -22 12 -38 0 -19 -7 10 -13 11 -31 1 -40 -21 -159 5 -190 41 -24 30 -34 78 -26 129 4 29 3 40 -6 40 -9 0 -8 3 2 10 17 11 26 13 17 4z m270 -217 c1 -11 1 -18 0 -16 -2 2 -8 11 -15 20 -9 12 -9 16 1 16 7 0 14 -9 14 -20z m572 -104 c-6 -7 -8 -16 -5 -22 3 -5 -1 -12 -9 -15 -8 -3 -14 -9 -13 -13 3 -16 -15 -63 -24 -63 -6 0 -8 -6 -5 -14 3 -8 -1 -22 -9 -33 -15 -17 -15 -17 -6 1 5 10 7 27 5 37 -3 11 -1 19 4 19 5 0 9 9 10 20 1 11 -2 18 -8 15 -5 -4 -9 -1 -9 6 0 8 -5 7 -17 -2 -10 -8 0 7 21 33 22 27 47 46 57 45 13 -1 15 -5 8 -14z m-263 -25 c-6 -30 -5 -31 8 -13 9 11 16 15 16 8 0 -6 3 -20 6 -30 5 -15 4 -15 -5 -3 -6 8 -11 10 -11 5 0 -6 5 -16 12 -23 9 -9 8 -12 -4 -12 -22 0 -29 12 -33 60 -2 24 1 40 7 40 7 0 8 -12 4 -32z m-153 -13 c-12 -15 -20 -19 -25 -12 -8 12 22 47 35 40 4 -2 -1 -15 -10 -28z m-38 -26 c-6 -16 -4 -20 6 -13 12 6 12 5 1 -8 -9 -11 -9 -18 -2 -21 6 -3 5 -4 -2 -2 -7 1 -12 8 -10 14 1 6 -2 11 -7 11 -5 0 -7 9 -4 20 3 11 10 20 15 20 5 0 6 -10 3 -21z m212 -115 c-2 -54 -4 -62 -14 -47 -15 19 -17 33 -5 33 5 0 7 20 6 45 -2 26 1 43 6 40 5 -3 9 -35 7 -71z m800 19 c-4 -3 1 -12 11 -20 15 -13 15 -13 -8 -7 -33 9 -37 13 -20 24 17 11 26 13 17 3z m-391 -18 c4 -8 3 -35 0 -60 -5 -32 -13 -46 -27 -50 -14 -5 -19 -13 -16 -26 6 -21 -12 -26 -31 -7 -22 22 -6 99 28 136 24 26 38 28 46 7z m281 9 c-3 -4 -1 -16 5 -28 6 -11 7 -18 3 -14 -9 9 -35 -9 -35 -24 0 -6 6 -5 14 2 13 10 13 8 3 -14 -12 -24 -12 -24 -20 -4 -10 29 10 88 31 88 3 0 2 -3 -1 -6z m-531 -70 c-3 -8 -11 -14 -18 -13 -10 0 -10 2 0 6 6 2 12 11 12 19 0 9 -5 12 -11 8 -6 -4 -5 3 2 17 l14 24 3 -23 c2 -13 1 -30 -2 -38z m164 41 c-6 -8 -9 -19 -5 -25 3 -5 2 -10 -4 -10 -5 0 -8 -18 -7 -40 2 -21 -1 -37 -6 -34 -5 4 -7 12 -4 19 2 7 0 17 -5 22 -11 11 22 83 38 83 3 0 0 -7 -7 -15z m480 -21 c0 -8 -6 -14 -13 -14 -7 0 -13 8 -13 19 0 11 5 17 13 14 7 -3 13 -11 13 -19z m-913 -21 c-4 -25 -16 -43 -30 -43 -7 0 -6 4 3 10 8 5 16 14 16 20 1 5 2 15 3 20 0 6 3 10 6 10 3 0 4 -8 2 -17z m556 -3 c3 -11 2 -22 -2 -24 -4 -3 -8 6 -9 20 -2 29 4 31 11 4z m347 -10 c0 -5 -4 -10 -10 -10 -14 0 -12 -43 3 -59 10 -11 9 -13 -3 -9 -20 6 -23 88 -4 88 8 0 14 -4 14 -10z m-801 -23 c-6 -10 -8 -21 -5 -25 3 -3 6 0 6 6 0 6 9 10 19 9 11 0 17 -5 15 -9 -3 -5 -10 -6 -15 -3 -5 4 -9 -1 -9 -10 0 -29 -25 -10 -28 22 -2 21 1 30 12 30 12 0 13 -5 5 -20z m658 -9 c-3 -7 -5 -2 -5 12 0 14 2 19 5 13 2 -7 2 -19 0 -25z m-492 -8 c19 -36 19 -45 1 -28 -8 7 -12 16 -9 21 2 4 -1 7 -6 7 -6 0 -11 7 -11 15 0 23 8 18 25 -15z m-305 -10 c0 -11 -33 -30 -52 -29 -7 0 -1 5 15 11 15 5 25 14 21 19 -3 5 0 9 5 9 6 0 11 -4 11 -10z m565 -18 c-3 -3 -11 0 -18 7 -9 10 -8 11 6 5 10 -3 15 -9 12 -12z"/>
<path d="M994 1617 c-4 -7 -4 -9 1 -5 4 4 14 3 22 -3 8 -7 13 -8 13 -1 0 15 -28 23 -36 9z"/>
<path d="M1000 1596 c0 -2 8 -10 18 -17 15 -13 16 -12 3 4 -13 16 -21 21 -21 13z"/>
<path d="M695 1570 c-3 -5 -1 -10 4 -10 6 0 11 5 11 10 0 6 -2 10 -4 10 -3 0 -8 -4 -11 -10z"/>
<path d="M965 1559 c-4 -6 -4 -13 -1 -16 3 -4 6 -1 6 6 0 7 5 9 12 5 7 -4 8 -3 4 4 -9 15 -13 15 -21 1z"/>
<path d="M1002 1530 c0 -14 2 -19 5 -12 2 6 2 18 0 25 -3 6 -5 1 -5 -13z"/>
<path d="M1102 1530 c0 -14 2 -19 5 -12 2 6 2 18 0 25 -3 6 -5 1 -5 -13z"/>
<path d="M542 1503 c-10 -19 -6 -43 7 -43 4 0 7 14 6 30 0 35 -1 36 -13 13z"/>
<path d="M505 1480 c-3 -5 -1 -10 4 -10 6 0 11 5 11 10 0 6 -2 10 -4 10 -3 0 -8 -4 -11 -10z"/>
<path d="M534 1393 c1 -24 5 -45 9 -48 4 -3 5 -2 2 1 -2 4 0 16 6 27 7 13 8 17 1 13 -6 -4 -13 6 -15 21 -3 16 -4 9 -3 -14z"/>
<path d="M423 1395 c0 -8 4 -12 9 -9 5 3 6 10 3 15 -9 13 -12 11 -12 -6z"/>
<path d="M1078 1383 c7 -3 16 -2 19 1 4 3 -2 6 -13 5 -11 0 -14 -3 -6 -6z"/>
<path d="M386 1343 c-4 -5 -13 -8 -18 -8 -6 0 -13 -6 -15 -12 -7 -20 12 -15 32 7 17 19 18 29 1 13z"/>
<path d="M635 1300 c-3 -5 -2 -10 4 -10 5 0 13 5 16 10 3 6 2 10 -4 10 -5 0 -13 -4 -16 -10z"/>
<path d="M656 1281 c-4 -5 3 -7 14 -4 23 6 26 13 6 13 -8 0 -17 -4 -20 -9z"/>
<path d="M483 1258 c4 -23 33 -33 44 -15 3 7 3 9 -2 5 -10 -10 -37 11 -29 23 3 5 0 9 -5 9 -6 0 -9 -10 -8 -22z"/>
<path d="M356 1212 c-3 -5 3 -17 13 -26 11 -10 22 -13 25 -8 3 5 -3 17 -13 26 -11 10 -22 13 -25 8z m25 -19 c13 -16 12 -17 -3 -4 -10 7 -18 15 -18 17 0 8 8 3 21 -13z"/>
<path d="M888 1193 c7 -3 16 -2 19 1 4 3 -2 6 -13 5 -11 0 -14 -3 -6 -6z"/>
<path d="M840 1163 c-13 -15 -12 -16 4 -10 10 4 26 2 35 -5 10 -8 9 -5 -3 10 -11 12 -20 22 -20 22 -1 -1 -8 -8 -16 -17z"/>
<path d="M695 1111 c-3 -5 -2 -12 3 -15 5 -3 9 1 9 9 0 17 -3 19 -12 6z"/>
<path d="M644 1084 c-18 -14 -18 -15 4 -4 12 6 28 8 34 4 7 -4 8 -3 4 4 -10 16 -18 15 -42 -4z"/>
<path d="M699 1069 c-12 -9 -12 -10 1 -6 8 2 23 0 33 -5 9 -5 17 -6 17 -4 0 13 -37 24 -51 15z"/>
<path d="M650 1059 c0 -5 5 -7 10 -4 6 3 10 8 10 11 0 2 -4 4 -10 4 -5 0 -10 -5 -10 -11z"/>
<path d="M622 1004 c-7 -8 -8 -14 -3 -14 10 0 25 19 20 25 -2 1 -10 -3 -17 -11z"/>
<path d="M358 1083 c6 -2 9 -10 6 -15 -4 -7 -2 -8 5 -4 13 9 5 26 -12 25 -9 0 -8 -2 1 -6z"/>
<path d="M381 1056 c2 -2 15 -9 29 -15 24 -11 24 -11 6 3 -16 13 -49 24 -35 12z"/>
<path d="M1095 921 c-3 -5 -2 -12 3 -15 5 -3 9 1 9 9 0 17 -3 19 -12 6z"/>
<path d="M1246 678 c3 -5 10 -6 15 -3 13 9 11 12 -6 12 -8 0 -12 -4 -9 -9z"/>
<path d="M1170 1696 c0 -2 8 -10 18 -17 15 -13 16 -12 3 4 -13 16 -21 21 -21 13z"/>
<path d="M1271 1584 c0 -11 3 -14 6 -6 3 7 2 16 -1 19 -3 4 -6 -2 -5 -13z"/>
<path d="M1244 1499 c-3 -6 2 -18 12 -27 17 -16 17 -16 5 0 -7 9 -10 22 -6 28 3 5 4 10 1 10 -3 0 -8 -5 -12 -11z"/>
<path d="M1179 1323 c-13 -16 -12 -17 4 -4 9 7 17 15 17 17 0 8 -8 3 -21 -13z"/>
<path d="M870 1010 c-9 -6 -10 -10 -3 -10 6 0 15 5 18 10 8 12 4 12 -15 0z"/>
<path d="M1770 969 c0 -5 5 -7 10 -4 6 3 10 8 10 11 0 2 -4 4 -10 4 -5 0 -10 -5 -10 -11z"/>
<path d="M1810 924 c-13 -33 -13 -94 0 -94 10 0 60 91 60 110 0 5 -11 10 -25 10 -18 0 -28 -7 -35 -26z m24 -20 c3 -8 2 -12 -4 -9 -6 3 -10 10 -10 16 0 14 7 11 14 -7z"/>
<path d="M2185 920 c-4 -12 -15 -20 -28 -20 -17 0 -19 -2 -7 -9 8 -6 19 -7 25 -3 5 3 2 -6 -8 -21 -18 -27 -11 -37 11 -15 8 8 15 8 28 -3 16 -12 17 -12 11 4 -5 13 0 25 15 38 l23 18 -31 -8 c-29 -8 -30 -7 -26 15 5 29 -4 32 -13 4z"/>
<path d="M1902 917 c-8 -9 -8 -17 0 -27 8 -13 9 -12 5 1 -3 9 0 22 6 28 6 6 8 11 5 11 -3 0 -10 -6 -16 -13z"/>
<path d="M2311 894 c0 -11 3 -14 6 -6 3 7 2 16 -1 19 -3 4 -6 -2 -5 -13z"/>
<path d="M1180 875 c0 -5 5 -17 10 -25 5 -8 10 -10 10 -5 0 6 -5 17 -10 25 -5 8 -10 11 -10 5z"/>
<path d="M2107 859 c7 -7 15 -10 18 -7 3 3 -2 9 -12 12 -14 6 -15 5 -6 -5z"/>
<path d="M1896 843 c-6 -14 -5 -15 5 -6 7 7 10 15 7 18 -3 3 -9 -2 -12 -12z"/>
<path d="M2248 835 c-6 -30 -3 -43 8 -33 3 4 4 19 2 35 l-3 28 -7 -30z"/>
<path d="M1410 819 c0 -5 5 -7 10 -4 6 3 10 8 10 11 0 2 -4 4 -10 4 -5 0 -10 -5 -10 -11z"/>
<path d="M2077 813 c3 -7 6 -13 8 -13 2 0 5 6 8 13 3 8 -1 14 -8 14 -7 0 -11 -6 -8 -14z"/>
<path d="M2215 794 c16 -12 18 -18 7 -34 -13 -22 -3 -27 16 -8 9 9 15 9 24 0 7 -7 18 -12 26 -12 10 0 10 3 -2 16 -21 20 -20 23 7 34 21 8 21 9 -6 9 -17 1 -30 -5 -34 -16 -5 -14 -8 -13 -14 5 -5 12 -16 22 -26 22 -16 -1 -16 -2 2 -16z"/>
<path d="M2118 778 c-2 -19 -8 -22 -33 -20 l-30 2 24 -18 c20 -16 22 -22 12 -40 -13 -25 0 -30 19 -7 12 14 16 13 37 -6 26 -25 28 -22 12 14 -7 16 -17 23 -28 20 -11 -3 -18 1 -18 11 0 9 7 16 14 16 8 0 12 -4 9 -9 -3 -4 5 -7 17 -6 35 4 37 5 37 14 0 4 -11 6 -25 3 -22 -4 -25 -1 -25 22 0 32 -17 35 -22 4z"/>
<path d="M1346 782 c-3 -5 1 -9 9 -9 8 0 15 4 15 9 0 4 -4 8 -9 8 -6 0 -12 -4 -15 -8z"/>
<path d="M1943 768 c-11 -13 -28 -38 -39 -55 -10 -18 -23 -33 -30 -33 -22 0 -42 -34 -33 -57 11 -30 66 -63 104 -63 37 0 104 30 128 58 30 34 10 43 -24 11 -17 -16 -34 -29 -38 -29 -6 0 -8 21 -12 143 -1 54 -21 63 -56 25z m31 -48 c4 -25 3 -31 -4 -20 -5 8 -10 11 -10 5 0 -5 -5 -3 -11 5 -8 11 -9 2 -4 -33 8 -58 0 -87 -25 -87 -18 0 -30 19 -30 46 0 21 55 106 63 98 4 -4 7 1 7 11 0 27 6 15 14 -25z m18 -65 c3 -13 1 -22 -3 -19 -9 5 -13 44 -5 44 2 0 6 -11 8 -25z m-121 -14 c-8 -5 -10 -14 -6 -22 6 -11 5 -11 -5 -2 -14 12 -6 33 13 33 8 0 7 -3 -2 -9z m119 -38 c0 -8 -4 -12 -9 -9 -5 4 -11 0 -14 -6 -2 -7 -4 1 -3 19 1 24 4 29 14 21 6 -6 12 -17 12 -25z"/>
<path d="M2020 756 c0 -2 7 -7 16 -10 8 -3 12 -2 9 4 -6 10 -25 14 -25 6z"/>
<path d="M2197 653 c-19 -36 -23 -38 -61 -23 -14 5 -26 6 -26 1 0 -9 30 -25 42 -23 10 2 3 -40 -11 -66 -14 -26 -9 -28 26 -5 25 17 26 16 49 -10 30 -35 35 -34 23 6 -7 26 -6 34 8 45 9 6 23 12 30 12 7 0 13 5 13 10 0 6 -15 10 -34 10 -33 0 -35 2 -38 38 l-3 37 -18 -32z m23 -53 c22 -22 13 -32 -29 -36 -17 -2 -21 0 -12 5 11 7 11 9 0 13 -12 4 -12 7 0 21 17 21 17 21 41 -3z"/>
<path d="M2103 585 c0 -8 4 -12 9 -9 5 3 6 10 3 15 -9 13 -12 11 -12 -6z"/>
<path d="M2071 567 c2 -1 13 -9 24 -17 19 -14 19 -14 6 3 -7 9 -18 17 -24 17 -6 0 -8 -1 -6 -3z"/>
<path d="M1140 546 c0 -2 7 -7 16 -10 8 -3 12 -2 9 4 -6 10 -25 14 -25 6z"/>
<path d="M830 520 c-9 -6 -10 -10 -3 -10 6 0 15 5 18 10 8 12 4 12 -15 0z"/>
<path d="M1040 520 c-8 -5 -10 -10 -5 -10 6 0 17 5 25 10 8 5 11 10 5 10 -5 0 -17 -5 -25 -10z"/>
<path d="M2090 526 c0 -2 8 -10 18 -17 15 -13 16 -12 3 4 -13 16 -21 21 -21 13z"/>
<path d="M1205 500 c-3 -5 -2 -18 4 -27 7 -14 9 -12 8 10 -2 30 -3 31 -12 17z"/>
<path d="M1605 499 c-3 -4 2 -6 10 -5 21 3 28 13 10 13 -9 0 -18 -4 -20 -8z"/>
<path d="M1850 503 c0 -1 9 -7 19 -12 14 -8 22 -7 29 2 9 10 4 13 -19 12 -16 0 -29 -1 -29 -2z"/>
<path d="M2269 505 c-1 -3 -2 -8 -3 -12 -1 -5 -5 -15 -10 -23 -6 -9 -1 -8 12 4 12 10 19 23 16 27 -6 10 -13 12 -15 4z"/>
<path d="M1257 463 c-22 -56 -40 -154 -30 -164 5 -5 19 -10 32 -11 21 -3 24 2 26 35 5 68 42 137 73 137 10 0 13 -7 8 -22 -27 -106 -29 -127 -17 -142 8 -9 22 -16 32 -16 15 0 19 7 19 33 0 61 63 167 86 144 3 -3 -3 -28 -12 -55 -23 -65 -13 -102 33 -115 25 -8 37 -5 60 11 28 20 29 20 52 1 15 -13 31 -17 45 -13 28 8 77 55 70 66 -3 5 0 7 6 6 7 -2 14 8 16 22 3 14 11 31 19 39 12 12 12 9 1 -22 -7 -20 -15 -39 -19 -43 -3 -4 0 -13 8 -21 8 -8 15 -20 15 -26 0 -6 -7 -1 -16 12 -12 17 -19 20 -28 11 -8 -9 -5 -16 13 -31 29 -24 38 -24 77 0 31 19 32 19 53 -2 l21 -22 37 20 c21 11 43 30 49 43 6 13 15 23 20 23 5 -1 10 5 10 12 1 6 2 17 3 23 0 6 8 11 16 11 11 0 13 -6 9 -21 -4 -12 -9 -23 -13 -26 -8 -7 -14 -31 -13 -55 1 -11 -5 -29 -12 -40 -7 -11 -12 -28 -10 -37 3 -23 -21 -44 -32 -27 -4 7 -3 9 4 5 15 -9 21 5 12 29 -6 17 -10 15 -28 -22 -25 -48 -39 -60 -54 -45 -14 14 66 97 82 87 5 -3 10 1 10 9 0 9 4 16 8 16 5 0 9 14 9 31 0 29 -2 30 -14 13 -7 -10 -13 -23 -13 -30 0 -6 -14 -17 -31 -25 -49 -20 -89 -58 -89 -84 0 -25 33 -55 61 -55 30 0 77 49 96 100 13 34 30 56 56 74 20 14 37 21 37 16 0 -5 11 -17 25 -26 29 -19 61 -14 93 17 23 21 23 21 45 1 31 -28 60 -35 104 -23 39 11 102 65 90 77 -3 4 -20 -5 -37 -20 -40 -33 -94 -36 -111 -5 -21 41 19 139 57 139 17 0 18 -22 2 -38 -19 -19 7 -40 30 -26 39 25 14 84 -37 84 -55 0 -121 -65 -121 -118 0 -22 -35 -62 -56 -62 -24 0 -27 26 -8 86 18 59 13 86 -19 92 -10 2 -22 -14 -36 -53 -12 -31 -21 -62 -21 -69 0 -14 -59 -70 -66 -63 -2 2 5 35 16 73 11 38 20 70 20 70 0 9 -87 44 -106 44 -37 0 -99 -65 -113 -118 -11 -38 -34 -62 -60 -62 -16 0 -13 45 4 87 20 48 20 48 -25 72 -51 27 -80 27 -114 0 -27 -21 -66 -87 -66 -112 0 -18 -32 -47 -53 -47 -22 0 -22 28 0 96 13 44 14 56 3 68 -32 39 -104 -1 -140 -78 -13 -28 -23 -58 -22 -66 3 -13 2 -13 -8 0 -10 12 -11 11 -7 -7 3 -15 0 -23 -8 -23 -20 0 -10 36 20 71 22 27 27 41 24 65 0 4 5 10 12 14 18 12 3 40 -21 40 -12 0 -35 -7 -51 -16 -28 -14 -32 -14 -48 0 -24 22 -27 21 -44 -21z m153 6 c0 -5 -6 -9 -12 -10 -10 0 -10 -2 -1 -6 10 -3 9 -12 -3 -35 -8 -16 -18 -27 -21 -24 -3 3 -1 12 6 20 8 9 8 21 2 38 -7 20 -6 24 10 25 10 1 19 -2 19 -8z m126 -1 c4 -6 2 -14 -4 -16 -7 -2 -10 -7 -7 -12 8 -13 -25 -81 -35 -75 -6 3 -10 11 -10 16 0 6 5 7 12 3 8 -5 9 -2 5 10 -4 10 -3 15 3 11 5 -3 7 7 5 25 -3 23 0 30 13 30 15 0 15 2 2 10 -9 6 -10 10 -3 10 6 0 15 -5 19 -12z m640 -13 c1 -8 -2 -15 -7 -15 -6 0 -8 -4 -4 -9 3 -5 -2 -16 -10 -24 -17 -18 -20 -31 -5 -22 6 3 10 -1 10 -9 0 -24 -18 -19 -26 6 -4 13 -2 24 5 26 6 2 11 12 11 22 0 10 5 22 10 25 6 4 7 12 4 18 -4 7 -3 8 1 4 5 -4 10 -14 11 -22z m-885 -19 c-7 -8 -11 -19 -8 -23 2 -4 1 -17 -4 -28 -6 -15 -8 -9 -8 23 -1 23 4 42 10 42 5 0 7 6 3 13 -5 9 -4 9 6 0 11 -10 11 -15 1 -27z m459 9 c0 -30 -31 -95 -55 -115 -28 -23 -41 2 -26 52 22 73 81 119 81 63z m190 10 c-7 -8 -17 -15 -23 -15 -6 0 -2 7 9 15 25 19 30 19 14 0z m70 -13 c0 -33 -57 -125 -74 -119 -14 5 -19 32 -12 60 19 74 86 119 86 59z m296 -7 c-18 -27 -21 -76 -6 -91 6 -6 3 -10 -10 -10 -17 0 -19 6 -16 42 2 22 12 51 22 63 25 28 30 27 10 -4z m-642 -18 c-6 -17 -24 -14 -24 4 0 6 5 7 12 3 8 -5 9 -1 4 12 -5 14 -4 16 4 8 6 -6 8 -18 4 -27z m388 26 c-6 -2 -10 -9 -6 -14 3 -5 0 -9 -5 -9 -6 0 -11 7 -11 15 0 8 8 15 18 14 10 0 12 -3 4 -6z m-138 -25 c-11 -17 -13 -70 -4 -88 6 -12 3 -16 -10 -16 -11 0 -17 2 -15 5 3 2 -3 10 -13 18 -13 10 -13 12 -2 8 12 -4 16 3 18 27 1 17 8 38 14 45 13 16 22 17 12 1z m-270 -26 c3 -5 -1 -9 -9 -9 -8 0 -12 4 -9 9 3 4 7 8 9 8 2 0 6 -4 9 -8z m-8 -37 c-3 -8 0 -15 7 -15 8 0 7 -4 -3 -9 -21 -14 -31 -3 -17 19 14 24 21 26 13 5z m518 -16 c-2 -4 0 -10 6 -14 5 -3 10 -12 10 -18 0 -7 -4 -6 -10 3 -5 8 -10 11 -10 6 0 -5 -6 -3 -14 3 -8 7 -14 20 -13 30 1 15 4 17 18 8 10 -6 16 -14 13 -18z m-891 -20 c-5 -5 -9 3 -11 19 -1 24 0 25 9 9 7 -11 7 -23 2 -28z m236 14 c-12 -14 -12 -16 2 -11 9 4 16 1 16 -8 0 -9 -5 -10 -15 -5 -21 12 -24 41 -5 41 13 0 13 -2 2 -17z"/>
<path d="M2455 470 c-3 -6 1 -7 9 -4 18 7 21 14 7 14 -6 0 -13 -4 -16 -10z"/>
<path d="M2455 301 c-3 -5 -2 -12 3 -15 5 -3 9 1 9 9 0 17 -3 19 -12 6z"/>
<path d="M1843 135 c0 -8 4 -12 9 -9 5 3 6 10 3 15 -9 13 -12 11 -12 -6z"/>
<path d="M1980 129 c0 -5 5 -7 10 -4 6 3 10 8 10 11 0 2 -4 4 -10 4 -5 0 -10 -5 -10 -11z"/>
</g>
</svg>