<svg xmlns="http://www.w3.org/2000/svg" width="23.5" height="21.5" viewBox="0 0 23.5 21.5">
    <path data-name="Path 4994" d="M51.173 102.28a.552.552 0 1 0-1.1 0v8.325a1.535 1.535 0 0 1-1.529 1.536h-14.6a1.535 1.535 0 0 1-1.529-1.536V100.14a1.535 1.535 0 0 1 1.524-1.54h1.744a2.619 2.619 0 0 0 1.867-.775l.865-.868a1.523 1.523 0 0 1 1.085-.451h4.826a.554.554 0 0 0 0-1.109h-4.832a2.619 2.619 0 0 0-1.867.775l-.865.868a1.523 1.523 0 0 1-1.085.451h-1.74a2.646 2.646 0 0 0-2.639 2.65v10.469a2.646 2.646 0 0 0 2.639 2.65h14.6a2.646 2.646 0 0 0 2.639-2.65z" transform="translate(-31.05 -92.01)" style="fill:#0076d7;stroke:#0076d7;stroke-width:.5px;fill-rule:evenodd"/>
    <path data-name="Path 4995" d="M142.725 202a4.745 4.745 0 1 0 4.725 4.745 4.742 4.742 0 0 0-4.725-4.745zm0 8.375a3.631 3.631 0 1 1 3.616-3.631 3.628 3.628 0 0 1-3.616 3.631z" transform="translate(-132.536 -193.379)" style="fill:#0076d7;stroke:#0076d7;stroke-width:.5px;fill-rule:evenodd"/>
    <path data-name="Path 4996" d="M358.207 95.3h-6.255a.554.554 0 0 0 0 1.109h6.255a.554.554 0 0 0 0-1.109z" transform="translate(-335.509 -91.915)" style="fill:#0076d7;stroke:#0076d7;stroke-width:.5px;fill-rule:evenodd"/>
    <path data-name="Path 4997" d="M416.5 31.954a.552.552 0 1 0-1.1 0v6.28a.552.552 0 1 0 1.1 0z" transform="translate(-396.382 -31.15)" style="fill:#0076d7;stroke:#0076d7;stroke-width:.5px;fill-rule:evenodd"/>
</svg>
